{
  "accessors": [
    {
      "bufferView": 2,
      "componentType": 5126,
      "count": 1320,
      "max": [
        2.9750993251800537,
        0.855339765548706,
        3.0205745697021484
      ],
      "min": [
        -2.9750993251800537,
        -5.960464477539063e-08,
        -2.9750993251800537
      ],
      "type": "VEC3"
    },
    {
      "bufferView": 2,
      "byteOffset": 15840,
      "componentType": 5126,
      "count": 1320,
      "max": [
        0.9999550580978394,
        1.0,
        0.9999549388885498
      ],
      "min": [
        -0.9999547004699707,
        -1.0,
        -0.9978969693183899
      ],
      "type": "VEC3"
    },
    {
      "bufferView": 1,
      "componentType": 5126,
      "count": 1320,
      "max": [
        10.37939453125,
        10.3873291015625
      ],
      "min": [
        -6.5665459632873535,
        -7.930412292480469
      ],
      "type": "VEC2"
    },
    {
      "bufferView": 0,
      "componentType": 5125,
      "count": 3186,
      "type": "SCALAR"
    },
    {
      "bufferView": 2,
      "byteOffset": 31680,
      "componentType": 5126,
      "count": 407,
      "max": [
        2.8249452114105225,
        0.2628293037414551,
        2.9216384887695313
      ],
      "min": [
        -2.8249452114105225,
        0.16912756860256195,
        -2.8249452114105225
      ],
      "type": "VEC3"
    },
    {
      "bufferView": 2,
      "byteOffset": 36564,
      "componentType": 5126,
      "count": 407,
      "max": [
        0.5496910214424133,
        1.0,
        0.9999549388885498
      ],
      "min": [
        -0.01266532763838768,
        -0.0003357089590281248,
        -0.7154008150100708
      ],
      "type": "VEC3"
    },
    {
      "bufferView": 1,
      "byteOffset": 10560,
      "componentType": 5126,
      "count": 407,
      "max": [
        9.479665756225586,
        2.643002510070801
      ],
      "min": [
        -9.396503448486328,
        -8.015000343322754
      ],
      "type": "VEC2"
    },
    {
      "bufferView": 0,
      "byteOffset": 12744,
      "componentType": 5125,
      "count": 1260,
      "type": "SCALAR"
    },
    {
      "bufferView": 2,
      "byteOffset": 41448,
      "componentType": 5126,
      "count": 422,
      "max": [
        2.9750993251800537,
        0.855339765548706,
        2.9750993251800537
      ],
      "min": [
        -2.9750993251800537,
        0.850617527961731,
        -2.9750993251800537
      ],
      "type": "VEC3"
    },
    {
      "bufferView": 2,
      "byteOffset": 46512,
      "componentType": 5126,
      "count": 422,
      "max": [
        0.8003466725349426,
        1.0,
        -0.0
      ],
      "min": [
        0.0,
        0.5065308809280396,
        -0.5697061419487
      ],
      "type": "VEC3"
    },
    {
      "bufferView": 1,
      "byteOffset": 13816,
      "componentType": 5126,
      "count": 422,
      "max": [
        12.78225326538086,
        2.7010726928710938
      ],
      "min": [
        -10.431676864624023,
        -1.7576594352722168
      ],
      "type": "VEC2"
    },
    {
      "bufferView": 0,
      "byteOffset": 17784,
      "componentType": 5125,
      "count": 1134,
      "type": "SCALAR"
    },
    {
      "bufferView": 2,
      "byteOffset": 51576,
      "componentType": 5126,
      "count": 468,
      "max": [
        0.05053631216287613,
        0.18000006675720215,
        0.05023394897580147
      ],
      "min": [
        -0.07985612750053406,
        0.0,
        -0.07315941154956818
      ],
      "type": "VEC3"
    },
    {
      "bufferView": 2,
      "byteOffset": 57192,
      "componentType": 5126,
      "count": 468,
      "max": [
        0.9999798536300659,
        0.9899375438690186,
        0.998345136642456
      ],
      "min": [
        -0.9877822399139404,
        -1.0,
        -0.9944213628768921
      ],
      "type": "VEC3"
    },
    {
      "bufferView": 1,
      "byteOffset": 17192,
      "componentType": 5126,
      "count": 468,
      "max": [
        0.9292010068893433,
        0.9998964071273804
      ],
      "min": [
        0.00010365316848037764,
        0.00010365316120442003
      ],
      "type": "VEC2"
    },
    {
      "bufferView": 0,
      "byteOffset": 22320,
      "componentType": 5125,
      "count": 2232,
      "type": "SCALAR"
    },
    {
      "bufferView": 2,
      "byteOffset": 62808,
      "componentType": 5126,
      "count": 132,
      "max": [
        0.20386464893817902,
        0.007889584638178349,
        0.005310354754328728
      ],
      "min": [
        -0.005834771785885096,
        -0.26834428310394287,
        -0.22399672865867615
      ],
      "type": "VEC3"
    },
    {
      "bufferView": 2,
      "byteOffset": 64392,
      "componentType": 5126,
      "count": 132,
      "max": [
        0.6793591380119324,
        0.7547113299369812,
        0.9931845664978027
      ],
      "min": [
        -0.9997408390045166,
        -0.7547113299369812,
        -0.7396610975265503
      ],
      "type": "VEC3"
    },
    {
      "bufferView": 1,
      "byteOffset": 20936,
      "componentType": 5126,
      "count": 132,
      "max": [
        0.9900000095367432,
        0.49000000953674316
      ],
      "min": [
        0.01000000536441803,
        0.01000000536441803
      ],
      "type": "VEC2"
    },
    {
      "bufferView": 0,
      "byteOffset": 31248,
      "componentType": 5125,
      "count": 360,
      "type": "SCALAR"
    },
    {
      "bufferView": 2,
      "byteOffset": 65976,
      "componentType": 5126,
      "count": 294,
      "max": [
        0.06661958247423172,
        0.04660424590110779,
        0.0625687763094902
      ],
      "min": [
        -0.06361525505781174,
        -0.03644722327589989,
        -0.06304705888032913
      ],
      "type": "VEC3"
    },
    {
      "bufferView": 2,
      "byteOffset": 69504,
      "componentType": 5126,
      "count": 294,
      "max": [
        0.9975736141204834,
        0.9960777163505554,
        0.9812068939208984
      ],
      "min": [
        -0.9721542596817017,
        -0.9966596961021423,
        -0.89788818359375
      ],
      "type": "VEC3"
    },
    {
      "bufferView": 1,
      "byteOffset": 21992,
      "componentType": 5126,
      "count": 294,
      "max": [
        0.9470121264457703,
        0.14766693115234375
      ],
      "min": [
        0.7641435265541077,
        0.1451270878314972
      ],
      "type": "VEC2"
    },
    {
      "bufferView": 0,
      "byteOffset": 32688,
      "componentType": 5125,
      "count": 1050,
      "type": "SCALAR"
    },
    {
      "bufferView": 2,
      "byteOffset": 73032,
      "componentType": 5126,
      "count": 630,
      "max": [
        0.027110164985060692,
        0.04009087011218071,
        0.034720394760370255
      ],
      "min": [
        -0.030721450224518776,
        -0.042083024978637695,
        -0.040992289781570435
      ],
      "type": "VEC3"
    },
    {
      "bufferView": 2,
      "byteOffset": 80592,
      "componentType": 5126,
      "count": 630,
      "max": [
        0.9942901134490967,
        0.9990199208259583,
        0.9875221848487854
      ],
      "min": [
        -0.993543267250061,
        -0.9771495461463928,
        -0.9991005659103394
      ],
      "type": "VEC3"
    },
    {
      "bufferView": 1,
      "byteOffset": 24344,
      "componentType": 5126,
      "count": 630,
      "max": [
        0.9530446529388428,
        0.9497036933898926
      ],
      "min": [
        0.6554440259933472,
        0.5481030344963074
      ],
      "type": "VEC2"
    },
    {
      "bufferView": 0,
      "byteOffset": 36888,
      "componentType": 5125,
      "count": 1704,
      "type": "SCALAR"
    },
    {
      "bufferView": 2,
      "byteOffset": 88152,
      "componentType": 5126,
      "count": 252,
      "max": [
        0.10200099647045135,
        0.02480018511414528,
        0.0534101277589798
      ],
      "min": [
        -0.033585671335458755,
        -0.009469994343817234,
        -0.040451500564813614
      ],
      "type": "VEC3"
    },
    {
      "bufferView": 2,
      "byteOffset": 91176,
      "componentType": 5126,
      "count": 252,
      "max": [
        0.9873418211936951,
        0.9992116689682007,
        0.9977045059204102
      ],
      "min": [
        -0.9926244616508484,
        -0.9992791414260864,
        -0.9939079284667969
      ],
      "type": "VEC3"
    },
    {
      "bufferView": 1,
      "byteOffset": 29384,
      "componentType": 5126,
      "count": 252,
      "max": [
        0.7448000907897949,
        0.5466000437736511
      ],
      "min": [
        0.7447999119758606,
        0.5465999245643616
      ],
      "type": "VEC2"
    },
    {
      "bufferView": 0,
      "byteOffset": 43704,
      "componentType": 5125,
      "count": 1476,
      "type": "SCALAR"
    }
  ],
  "asset": {
    "extras": {
      "author": "HArismendi (https://sketchfab.com/HArismendi)",
      "license": "CC-BY-4.0 (http://creativecommons.org/licenses/by/4.0/)",
      "source": "https://sketchfab.com/3d-models/circular-maze-86f194f87e5a459f812ecfb14a035e78",
      "title": "Circular Maze"
    },
    "generator": "Sketchfab-12.67.0",
    "version": "2.0"
  },
  "bufferViews": [
    {
      "buffer": 0,
      "byteLength": 49608,
      "name": "floatBufferViews",
      "target": 34963
    },
    {
      "buffer": 0,
      "byteLength": 31400,
      "byteOffset": 49608,
      "byteStride": 8,
      "name": "floatBufferViews",
      "target": 34962
    },
    {
      "buffer": 0,
      "byteLength": 94200,
      "byteOffset": 81008,
      "byteStride": 12,
      "name": "floatBufferViews",
      "target": 34962
    }
  ],
  "buffers": [
    {
      "byteLength": 175208,
      "uri": "scene.bin"
    }
  ],
  "materials": [
    {
      "doubleSided": true,
      "name": "material_0",
      "pbrMetallicRoughness": {
        "metallicFactor": 0.0,
        "roughnessFactor": 0.6
      }
    },
    {
      "doubleSided": true,
      "name": "Walls"
    },
    {
      "doubleSided": true,
      "name": "Material.001",
      "pbrMetallicRoughness": {
        "baseColorFactor": [
          0.0360757,
          0.0,
          0.8,
          1.0
        ],
        "metallicFactor": 0.0,
        "roughnessFactor": 0.5
      }
    },
    {
      "doubleSided": true,
      "name": "Material.002",
      "pbrMetallicRoughness": {
        "baseColorFactor": [
          0.273831,
          0.238557,
          0.00971209,
          1.0
        ],
        "metallicFactor": 0.0,
        "roughnessFactor": 0.5
      }
    },
    {
      "doubleSided": true,
      "name": "Idol"
    },
    {
      "doubleSided": true,
      "name": "DefaultMaterial",
      "pbrMetallicRoughness": {
        "metallicFactor": 0.0,
        "roughnessFactor": 0.9
      }
    }
  ],
  "meshes": [
    {
      "name": "Object_0",
      "primitives": [
        {
          "attributes": {
            "NORMAL": 1,
            "POSITION": 0,
            "TEXCOORD_0": 2
          },
          "indices": 3,
          "material": 1,
          "mode": 4
        }
      ]
    },
    {
      "name": "Object_1",
      "primitives": [
        {
          "attributes": {
            "NORMAL": 5,
            "POSITION": 4,
            "TEXCOORD_0": 6
          },
          "indices": 7,
          "material": 2,
          "mode": 4
        }
      ]
    },
    {
      "name": "Object_2",
      "primitives": [
        {
          "attributes": {
            "NORMAL": 9,
            "POSITION": 8,
            "TEXCOORD_0": 10
          },
          "indices": 11,
          "material": 3,
          "mode": 4
        }
      ]
    },
    {
      "name": "Object_3",
      "primitives": [
        {
          "attributes": {
            "NORMAL": 13,
            "POSITION": 12,
            "TEXCOORD_0": 14
          },
          "indices": 15,
          "material": 4,
          "mode": 4
        }
      ]
    },
    {
      "name": "Object_4",
      "primitives": [
        {
          "attributes": {
            "NORMAL": 17,
            "POSITION": 16,
            "TEXCOORD_0": 18
          },
          "indices": 19,
          "material": 0,
          "mode": 4
        }
      ]
    },
    {
      "name": "Object_5",
      "primitives": [
        {
          "attributes": {
            "NORMAL": 21,
            "POSITION": 20,
            "TEXCOORD_0": 22
          },
          "indices": 23,
          "material": 5,
          "mode": 4
        }
      ]
    },
    {
      "name": "Object_6",
      "primitives": [
        {
          "attributes": {
            "NORMAL": 25,
            "POSITION": 24,
            "TEXCOORD_0": 26
          },
          "indices": 27,
          "material": 5,
          "mode": 4
        }
      ]
    },
    {
      "name": "Object_7",
      "primitives": [
        {
          "attributes": {
            "NORMAL": 29,
            "POSITION": 28,
            "TEXCOORD_0": 30
          },
          "indices": 31,
          "material": 5,
          "mode": 4
        }
      ]
    }
  ],
  "nodes": [
    {
      "children": [
        1
      ],
      "matrix": [
        1.4285714626312256,
        0.0,
        0.0,
        0.0,
        0.0,
        3.172065860271246e-16,
        -1.4285714626312256,
        0.0,
        0.0,
        1.4285714626312256,
        3.172065860271246e-16,
        0.0,
        0.0,
        0.0,
        0.0,
        1.0
      ],
      "name": "Sketchfab_model"
    },
    {
      "children": [
        2
      ],
      "name": "root"
    },
    {
      "children": [
        3,
        7,
        9,
        11,
        13,
        15
      ],
      "matrix": [
        1.0,
        0.0,
        0.0,
        0.0,
        0.0,
        2.220446049250313e-16,
        1.0,
        0.0,
        0.0,
        -1.0,
        2.220446049250313e-16,
        0.0,
        0.0,
        0.0,
        0.0,
        1.0
      ],
      "name": "GLTF_SceneRootNode"
    },
    {
      "children": [
        4,
        5,
        6
      ],
      "matrix": [
        2.112133264541626,
        0.0,
        0.0,
        0.0,
        0.0,
        2.112133264541626,
        0.0,
        0.0,
        0.0,
        0.0,
        2.112133264541626,
        0.0,
        0.0,
        0.0,
        0.0,
        1.0
      ],
      "name": "Cube_2"
    },
    {
      "mesh": 0,
      "name": "Object_4"
    },
    {
      "mesh": 1,
      "name": "Object_5"
    },
    {
      "mesh": 2,
      "name": "Object_6"
    },
    {
      "children": [
        8
      ],
      "matrix": [
        1.0,
        0.0,
        0.0,
        0.0,
        0.0,
        1.0,
        0.0,
        0.0,
        0.0,
        0.0,
        1.0,
        0.0,
        0.00950319878757,
        0.49784019589424133,
        0.0058985608629882336,
        1.0
      ],
      "name": "Idol_3"
    },
    {
      "mesh": 3,
      "name": "Object_8"
    },
    {
      "children": [
        10
      ],
      "matrix": [
        1.0,
        0.0,
        0.0,
        0.0,
        0.0,
        1.0,
        0.0,
        0.0,
        0.0,
        0.0,
        1.0,
        0.0,
        0.4218069314956665,
        0.7392382621765137,
        0.5048889517784119,
        1.0
      ],
      "name": "Cone_4"
    },
    {
      "mesh": 4,
      "name": "Object_10"
    },
    {
      "children": [
        12
      ],
      "matrix": [
        1.0,
        0.0,
        0.0,
        0.0,
        0.0,
        1.0,
        0.0,
        0.0,
        0.0,
        0.0,
        1.0,
        0.0,
        0.536737322807312,
        0.7237129211425781,
        0.36604273319244385,
        1.0
      ],
      "name": "Cylinder_5"
    },
    {
      "mesh": 5,
      "name": "Object_12"
    },
    {
      "children": [
        14
      ],
      "matrix": [
        1.0,
        0.0,
        0.0,
        0.0,
        0.0,
        1.0,
        0.0,
        0.0,
        0.0,
        0.0,
        1.0,
        0.0,
        0.5797936916351318,
        0.6571891903877258,
        0.3476642072200775,
        1.0
      ],
      "name": "Sphere_6"
    },
    {
      "mesh": 6,
      "name": "Object_14"
    },
    {
      "children": [
        16
      ],
      "matrix": [
        1.0,
        0.0,
        0.0,
        0.0,
        0.0,
        1.0,
        0.0,
        0.0,
        0.0,
        0.0,
        1.0,
        0.0,
        0.4846856892108917,
        0.271124929189682,
        0.31735917925834656,
        1.0
      ],
      "name": "Cylinder.001_7"
    },
    {
      "mesh": 7,
      "name": "Object_16"
    }
  ],
  "scene": 0,
  "scenes": [
    {
      "name": "Sketchfab_Scene",
      "nodes": [
        0
      ]
    }
  ]
}
